<svg width="521" height="484" viewBox="0 0 521 484" fill="none" xmlns="http://www.w3.org/2000/svg">
<circle cx="242" cy="242" r="57.7857" stroke="#1A1B1C"/>
<circle cx="242" cy="242" r="51" fill="#1A1B1C"/>
<path d="M274.668 209.412C266.315 201.038 254.763 195.857 242 195.857C239.047 195.857 236.158 196.134 233.359 196.665C238.134 204.563 255.58 232.255 258.941 237.18C259.593 238.137 260.753 236.236 267.778 222.693L274.668 209.412Z" fill="#FCFCFC"/>
<path d="M199.088 225.004C204.582 211.146 216.594 200.582 231.341 197.094C233.087 199.713 236.422 204.887 240.067 210.649L249.327 225.291H222.886C210.126 225.291 202.669 225.208 199.088 225.004Z" fill="#FCFCFC"/>
<path d="M205.869 270.703C199.602 262.825 195.857 252.85 195.857 242C195.857 236.801 196.717 231.803 198.302 227.14H213.167C230.552 227.14 230.948 227.167 230.327 228.329C229.095 230.634 210.824 262.262 205.869 270.703Z" fill="#FCFCFC"/>
<path d="M250.964 287.273C248.065 287.843 245.067 288.143 242 288.143C228.192 288.143 215.8 282.077 207.344 272.465C209.171 268.405 213.929 259.932 222.172 246.011C222.947 244.701 223.732 243.781 223.917 243.966C224.102 244.15 230.604 254.52 238.367 267.008L250.964 287.273Z" fill="#FCFCFC"/>
<path d="M285.529 257.348C280.372 271.973 268.053 283.22 252.784 286.876C248.578 280.389 234.612 257.956 234.612 257.609C234.612 257.466 246.681 257.348 261.433 257.348H285.529Z" fill="#FCFCFC"/>
<path d="M275.902 210.697C283.5 218.922 288.143 229.919 288.143 242C288.143 246.923 287.372 251.666 285.944 256.115H270.596C260.624 256.115 252.465 255.965 252.465 255.78C252.465 255.4 272.437 217.016 275.902 210.697Z" fill="#FCFCFC"/>
<path d="M362.988 145L359.082 135.2H358.004L354.098 145H355.344L356.366 142.354H360.734L361.742 145H362.988ZM358.55 136.67L360.314 141.29H356.772L358.55 136.67ZM370.19 145V143.922H365.29V135.2H364.1V145H370.19ZM377.519 145V143.922H372.619V135.2H371.429V145H377.519ZM382.714 145.112C385.472 145.112 387.53 142.984 387.53 140.1C387.53 137.216 385.472 135.088 382.714 135.088C379.956 135.088 377.912 137.216 377.912 140.1C377.912 142.984 379.956 145.112 382.714 145.112ZM382.714 144.034C380.656 144.034 379.144 142.354 379.144 140.1C379.144 137.846 380.656 136.166 382.714 136.166C384.772 136.166 386.298 137.846 386.298 140.1C386.298 142.354 384.772 144.034 382.714 144.034ZM392.278 145L394.714 137.034L397.136 145H398.368L401.364 135.2H400.146L397.71 143.194L395.246 135.2H394.182L391.704 143.194L389.296 135.2H388.05L391.088 145H392.278ZM414.011 145L410.105 135.2H409.027L405.121 145H406.367L407.389 142.354H411.757L412.765 145H414.011ZM409.573 136.67L411.337 141.29H407.795L409.573 136.67ZM415.123 144.244C415.123 143.899 415.207 143.656 415.375 143.516C415.543 143.376 415.744 143.306 415.977 143.306C416.22 143.306 416.425 143.376 416.593 143.516C416.771 143.656 416.859 143.899 416.859 144.244C416.859 144.58 416.771 144.823 416.593 144.972C416.425 145.121 416.22 145.196 415.977 145.196C415.744 145.196 415.543 145.121 415.375 144.972C415.207 144.823 415.123 144.58 415.123 144.244ZM420.087 145V135.2H418.897V145H420.087ZM422.137 144.244C422.137 143.899 422.221 143.656 422.389 143.516C422.557 143.376 422.758 143.306 422.991 143.306C423.234 143.306 423.439 143.376 423.607 143.516C423.784 143.656 423.873 143.899 423.873 144.244C423.873 144.58 423.784 144.823 423.607 144.972C423.439 145.121 423.234 145.196 422.991 145.196C422.758 145.196 422.557 145.121 422.389 144.972C422.221 144.823 422.137 144.58 422.137 144.244ZM358.508 169V160.278H361.63V159.2H354.168V160.278H357.304V169H358.508ZM366.499 169.112C369.257 169.112 371.315 166.984 371.315 164.1C371.315 161.216 369.257 159.088 366.499 159.088C363.741 159.088 361.697 161.216 361.697 164.1C361.697 166.984 363.741 169.112 366.499 169.112ZM366.499 168.034C364.441 168.034 362.929 166.354 362.929 164.1C362.929 161.846 364.441 160.166 366.499 160.166C368.557 160.166 370.083 161.846 370.083 164.1C370.083 166.354 368.557 168.034 366.499 168.034ZM379.433 169.112C381.477 169.112 383.017 168.104 383.017 166.326C383.017 162.644 377.249 164.198 377.249 161.692C377.249 160.754 378.033 160.166 379.363 160.166C380.679 160.166 381.533 160.88 381.645 161.986H382.821C382.681 160.222 381.323 159.088 379.363 159.088C377.403 159.088 376.045 160.138 376.045 161.692C376.045 165.192 381.771 163.806 381.771 166.326C381.771 167.516 380.791 168.034 379.433 168.034C377.907 168.034 377.011 167.152 376.885 165.794H375.709C375.835 167.796 377.235 169.112 379.433 169.112ZM388.837 169.112C391.007 169.112 392.757 167.782 392.967 165.948H391.735C391.595 167.152 390.363 168.034 388.837 168.034C386.793 168.034 385.351 166.648 385.351 164.1C385.351 161.552 386.793 160.166 388.837 160.166C390.335 160.166 391.553 161.048 391.721 162.252H392.981C392.715 160.418 390.965 159.088 388.837 159.088C386.401 159.088 384.119 160.712 384.119 164.1C384.119 167.474 386.387 169.112 388.837 169.112ZM402.349 169L398.443 159.2H397.365L393.459 169H394.705L395.727 166.354H400.095L401.103 169H402.349ZM397.911 160.67L399.675 165.29H396.133L397.911 160.67ZM404.652 169V161.048L409.692 169H411.064V159.2H409.874V167.18L404.82 159.2H403.462V169H404.652ZM420.159 169V164.898L423.631 159.2H422.273L419.571 163.75L416.855 159.2H415.497L418.969 164.898V169H420.159ZM428.365 169.112C431.123 169.112 433.181 166.984 433.181 164.1C433.181 161.216 431.123 159.088 428.365 159.088C425.607 159.088 423.563 161.216 423.563 164.1C423.563 166.984 425.607 169.112 428.365 169.112ZM428.365 168.034C426.307 168.034 424.795 166.354 424.795 164.1C424.795 161.846 426.307 160.166 428.365 160.166C430.423 160.166 431.949 161.846 431.949 164.1C431.949 166.354 430.423 168.034 428.365 168.034ZM438.312 169.112C440.538 169.112 442.008 167.782 442.008 165.64V159.2H440.846V165.696C440.846 167.138 439.838 168.034 438.312 168.034C436.8 168.034 435.792 167.138 435.792 165.696V159.2H434.616V165.64C434.616 167.782 436.086 169.112 438.312 169.112ZM449.209 164.352C450.133 163.918 450.749 163.148 450.749 162.07C450.749 160.362 449.559 159.2 447.627 159.2H443.917V169H445.107V165.01H447.767C448.691 165.01 449.307 165.682 449.363 166.634L449.531 169H450.679L450.511 166.564C450.441 165.57 449.979 164.772 449.209 164.352ZM447.627 160.264C448.999 160.264 449.517 161.104 449.517 162.07C449.517 163.036 448.999 163.932 447.627 163.932H445.107V160.264H447.627ZM457.494 169V164.59H461.512V163.512H457.494V160.278H462.436V159.2H456.304V169H457.494ZM470.9 169L466.994 159.2H465.916L462.01 169H463.256L464.278 166.354H468.646L469.654 169H470.9ZM466.462 160.67L468.226 165.29H464.684L466.462 160.67ZM475.982 169.112C478.152 169.112 479.902 167.782 480.112 165.948H478.88C478.74 167.152 477.508 168.034 475.982 168.034C473.938 168.034 472.496 166.648 472.496 164.1C472.496 161.552 473.938 160.166 475.982 160.166C477.48 160.166 478.698 161.048 478.866 162.252H480.126C479.86 160.418 478.11 159.088 475.982 159.088C473.546 159.088 471.264 160.712 471.264 164.1C471.264 167.474 473.532 169.112 475.982 169.112ZM487.91 169V167.922H482.814V164.478H486.832V163.4H482.814V160.278H487.756V159.2H481.624V169H487.91Z" fill="#1A1B1C"/>
<path d="M282 203L344 148" stroke="#1A1B1C"/>
<circle cx="345.5" cy="146.5" r="2" stroke="#1A1B1C"/>
<path opacity="0.3" d="M242 1L483 242L242 483L1 242L242 1Z" stroke="#A0A4AB" stroke-width="2" stroke-linecap="round" stroke-linejoin="round" stroke-dasharray="0.1 8"/>
<path opacity="0.6" d="M242 19.8281L464.172 242L242 464.172L19.8281 242L242 19.8281Z" stroke="#A0A4AB" stroke-width="2" stroke-linecap="round" stroke-linejoin="round" stroke-dasharray="0.1 8"/>
<path d="M242 39.4092L444.59 242L242 444.59L39.4092 242L242 39.4092Z" stroke="#A0A4AB" stroke-width="2" stroke-linecap="round" stroke-linejoin="round" stroke-dasharray="0.1 8"/>
</svg>
