<svg width="218" height="218" viewBox="0 0 218 218" fill="none" xmlns="http://www.w3.org/2000/svg">
<rect x="108.807" width="153.876" height="153.875" transform="rotate(45 108.807 0)" fill="#F3F3F4"/>
<path d="M76.4851 103.1C78.9491 103.1 80.6611 101.836 80.6611 99.7557C80.6611 95.3877 74.5651 97.2437 74.5651 94.7637C74.5651 93.9797 75.2531 93.4677 76.3571 93.4677C77.5411 93.4677 78.3091 94.1237 78.4051 95.0997L80.4211 95.0997C80.3251 93.0037 78.7251 91.6437 76.3571 91.6437C74.0851 91.6437 72.5011 92.9237 72.5011 94.7637C72.5011 99.0517 78.5171 97.3877 78.5171 99.7877C78.5171 100.78 77.6851 101.26 76.4851 101.26C75.1411 101.26 74.3091 100.46 74.1971 99.2117L72.1651 99.2117C72.2771 101.564 73.9411 103.1 76.4851 103.1ZM91.5401 102.972L87.0121 96.2197L91.1241 91.7717L88.4841 91.7717L83.9881 96.6517L83.9881 91.7717L81.8601 91.7717L81.8601 102.972L83.9881 102.972L83.9881 99.4837L85.5561 97.7877L88.9161 102.972L91.5401 102.972ZM94.5275 102.972L94.5275 91.7717L92.3995 91.7717L92.3995 102.972L94.5275 102.972ZM98.4571 102.972L98.4571 95.0837L103.321 102.972L105.593 102.972L105.593 91.7717L103.481 91.7717L103.481 99.6757L98.6331 91.7717L96.3451 91.7717L96.3451 102.972L98.4571 102.972ZM115.172 102.972L115.172 93.5956L118.548 93.5956L118.548 91.7716L109.668 91.7717L109.668 93.5957L113.06 93.5956L113.06 102.972L115.172 102.972ZM124.376 102.972L124.376 98.3156L128.232 91.7716L125.96 91.7716L123.32 96.3476L120.696 91.7716L118.408 91.7716L122.264 98.3156L122.264 102.972L124.376 102.972ZM130.865 102.972L130.865 98.7156L133.233 98.7156C135.569 98.7156 136.961 97.2756 136.961 95.2436C136.961 93.2116 135.569 91.7716 133.233 91.7716L128.737 91.7716L128.737 102.972L130.865 102.972ZM130.865 93.5476L133.137 93.5476C134.385 93.5476 134.897 94.3476 134.897 95.2436C134.897 96.1396 134.385 96.9396 133.137 96.9396L130.865 96.9396L130.865 93.5476ZM145.643 102.972L145.643 101.132L140.123 101.132L140.123 98.1396L144.411 98.1396L144.411 96.3156L140.123 96.3156L140.123 93.5956L145.467 93.5956L145.467 91.7716L138.011 91.7716L138.011 102.972L145.643 102.972ZM84.0743 126.972C87.1783 126.972 89.8183 125.116 89.8183 121.372C89.8183 117.628 87.1783 115.772 84.0743 115.772L80.4423 115.772L80.4423 126.972L84.0743 126.972ZM82.5543 117.596L83.8983 117.596C85.8343 117.596 87.6743 118.604 87.6743 121.372C87.6743 124.14 85.8343 125.132 83.8983 125.132L82.5543 125.132L82.5543 117.596ZM98.7856 126.972L98.7856 125.132L93.2656 125.132L93.2656 122.14L97.5536 122.14L97.5536 120.316L93.2656 120.316L93.2656 117.596L98.6096 117.596L98.6096 115.772L91.1536 115.772L91.1536 126.972L98.7856 126.972ZM104.691 126.972L104.691 117.596L108.067 117.596L108.067 115.772L99.1868 115.772L99.1868 117.596L102.579 117.596L102.579 126.972L104.691 126.972ZM117.114 126.972L112.794 115.772L110.81 115.772L106.506 126.972L108.682 126.972L109.642 124.364L113.962 124.364L114.922 126.972L117.114 126.972ZM111.818 118.476L113.322 122.572L110.314 122.572L111.818 118.476ZM119.993 126.972L119.993 115.772L117.865 115.772L117.865 126.972L119.993 126.972ZM129.171 126.972L129.171 125.132L123.939 125.132L123.939 115.772L121.811 115.772L121.811 126.972L129.171 126.972ZM133.64 127.1C136.104 127.1 137.816 125.836 137.816 123.756C137.816 119.388 131.72 121.244 131.72 118.764C131.72 117.98 132.408 117.468 133.512 117.468C134.696 117.468 135.464 118.124 135.56 119.1L137.576 119.1C137.48 117.004 135.88 115.644 133.512 115.644C131.24 115.644 129.656 116.924 129.656 118.764C129.656 123.052 135.672 121.388 135.672 123.788C135.672 124.78 134.84 125.26 133.64 125.26C132.296 125.26 131.464 124.46 131.352 123.212L129.32 123.212C129.432 125.564 131.096 127.1 133.64 127.1Z" fill="#1A1B1C"/>
</svg>
