<svg width="218" height="218" viewBox="0 0 218 218" fill="none" xmlns="http://www.w3.org/2000/svg">
<rect x="108.807" width="153.876" height="153.875" transform="rotate(45 108.807 0)" fill="#E1E1E2"/>
<path d="M52.3038 114.969C55.4078 114.969 58.0478 113.113 58.0478 109.369C58.0478 105.625 55.4078 103.769 52.3038 103.769L48.6718 103.769L48.6718 114.969L52.3038 114.969ZM50.7838 105.593L52.1278 105.593C54.0638 105.593 55.9038 106.601 55.9038 109.369C55.9038 112.137 54.0638 113.129 52.1278 113.129L50.7838 113.129L50.7838 105.593ZM67.015 114.969L67.015 113.129L61.495 113.129L61.495 110.137L65.783 110.137L65.783 108.313L61.495 108.313L61.495 105.593L66.839 105.593L66.839 103.769L59.383 103.769L59.383 114.969L67.015 114.969ZM70.3283 114.969L70.3283 107.545L73.3843 114.969L74.9843 114.969L78.0243 107.545L78.0243 114.969L80.0083 114.969L80.0083 103.769L77.5763 103.769L74.1843 112.041L70.7923 103.769L68.3443 103.769L68.3443 114.969L70.3283 114.969ZM87.0048 115.097C90.2528 115.097 92.6528 112.665 92.6528 109.369C92.6528 106.073 90.2528 103.641 87.0048 103.641C83.7408 103.641 81.3408 106.073 81.3408 109.369C81.3408 112.665 83.7408 115.097 87.0048 115.097ZM86.9888 113.257C84.9568 113.257 83.4688 111.609 83.4688 109.369C83.4688 107.129 84.9568 105.465 86.9888 105.465C89.0368 105.465 90.5248 107.129 90.5248 109.369C90.5248 111.609 89.0368 113.257 86.9888 113.257ZM98.9615 115.097C100.466 115.097 101.698 114.329 102.114 113.193L102.114 114.969L104.002 114.969L104.002 110.793C104.002 109.721 103.122 108.953 102.146 108.953L99.1695 108.953L99.1695 110.569L101.442 110.569C101.794 110.569 102.018 110.793 102.018 111.145C102.018 112.345 100.562 113.353 99.0415 113.353C97.0575 113.353 95.5215 111.849 95.5215 109.369C95.5215 106.889 97.0575 105.465 99.0735 105.465C100.61 105.465 101.714 106.313 101.906 107.577L104.034 107.577C103.858 105.257 101.842 103.641 99.0895 103.641C96.1775 103.641 93.4895 105.545 93.4895 109.369C93.4895 113.193 96.1295 115.097 98.9615 115.097ZM113.669 111.977C113.589 110.953 113.093 110.121 112.325 109.641C113.253 109.161 113.829 108.377 113.829 107.225C113.829 105.193 112.453 103.769 110.117 103.769L105.525 103.769L105.525 114.969L107.653 114.969L107.653 110.761L110.069 110.761C110.901 110.761 111.493 111.369 111.573 112.217L111.845 114.969L113.941 114.969L113.669 111.977ZM110.021 105.545C111.269 105.545 111.781 106.329 111.781 107.225C111.781 108.121 111.269 108.937 110.021 108.937L107.653 108.937L107.653 105.545L110.021 105.545ZM125.431 114.969L121.111 103.769L119.127 103.769L114.823 114.969L116.999 114.969L117.959 112.361L122.279 112.361L123.239 114.969L125.431 114.969ZM120.135 106.473L121.639 110.569L118.631 110.569L120.135 106.473ZM128.31 114.969L128.31 110.713L130.678 110.713C133.014 110.713 134.406 109.273 134.406 107.241C134.406 105.209 133.014 103.769 130.678 103.769L126.182 103.769L126.182 114.969L128.31 114.969ZM128.31 105.545L130.582 105.545C131.83 105.545 132.342 106.345 132.342 107.241C132.342 108.137 131.83 108.937 130.582 108.937L128.31 108.937L128.31 105.545ZM142.56 108.313L137.568 108.313L137.568 103.769L135.456 103.769L135.456 114.969L137.568 114.969L137.568 110.153L142.56 110.153L142.56 114.969L144.672 114.969L144.672 103.769L142.56 103.769L142.56 108.313ZM148.623 114.969L148.623 103.769L146.495 103.769L146.495 114.969L148.623 114.969ZM155.497 115.097C158.249 115.097 160.297 113.513 160.521 111.193L158.409 111.193C158.217 112.409 157.033 113.257 155.497 113.257C153.545 113.257 152.073 111.913 152.073 109.369C152.073 106.825 153.545 105.465 155.497 105.465C157.001 105.465 158.185 106.313 158.345 107.545L160.553 107.545C160.249 105.225 158.201 103.641 155.497 103.641C152.569 103.641 149.945 105.561 149.945 109.369C149.945 113.177 152.521 115.097 155.497 115.097ZM165.426 115.097C167.89 115.097 169.602 113.833 169.602 111.753C169.602 107.385 163.506 109.241 163.506 106.761C163.506 105.977 164.194 105.465 165.298 105.465C166.482 105.465 167.25 106.121 167.346 107.097L169.362 107.097C169.266 105.001 167.666 103.641 165.298 103.641C163.026 103.641 161.442 104.921 161.442 106.761C161.442 111.049 167.458 109.385 167.458 111.785C167.458 112.777 166.626 113.257 165.426 113.257C164.082 113.257 163.25 112.457 163.138 111.209L161.106 111.209C161.218 113.561 162.882 115.097 165.426 115.097Z" fill="#1A1B1C"/>
</svg>
