<svg width="489" height="484" viewBox="0 0 489 484" fill="none" xmlns="http://www.w3.org/2000/svg">
<circle cx="247" cy="242" r="57.7857" stroke="#1A1B1C"/>
<circle cx="247" cy="242" r="50" fill="#FCFCFC" stroke="#1A1B1C" stroke-width="2"/>
<path d="M257.321 242C264.363 242 270.071 236.292 270.071 229.25C270.071 222.208 264.363 216.5 257.321 216.5C250.28 216.5 244.571 222.208 244.571 229.25C244.571 236.292 250.28 242 257.321 242Z" fill="#1A1B1C"/>
<path fill-rule="evenodd" clip-rule="evenodd" d="M196 242C196 245.96 196.451 249.815 197.306 253.516C202.527 276.136 222.794 293 247 293C273.867 293 295.882 272.224 297.856 245.862C297.951 244.587 298 243.299 298 242C298 213.833 275.167 191 247 191C218.833 191 196 213.833 196 242ZM214.336 241.726L198.382 252.771C197.618 249.302 197.214 245.698 197.214 242C197.214 214.504 219.504 192.214 247 192.214C274.496 192.214 296.786 214.504 296.786 242C296.786 243.541 296.716 245.066 296.579 246.572L261.945 265.813C259.432 267.208 256.334 266.997 254.035 265.272L222.855 241.887C220.346 240.006 216.915 239.941 214.336 241.726Z" fill="#1A1B1C"/>
<path d="M70.7771 345L66.8711 335.2H65.7931L61.8871 345H63.1331L64.1551 342.354H68.5231L69.5311 345H70.7771ZM66.3391 336.67L68.1031 341.29H64.5611L66.3391 336.67ZM77.9795 345V343.922H73.0795V335.2H71.8895V345H77.9795ZM85.3076 345V343.922H80.4076V335.2H79.2176V345H85.3076ZM90.5033 345.112C93.2613 345.112 95.3193 342.984 95.3193 340.1C95.3193 337.216 93.2613 335.088 90.5033 335.088C87.7453 335.088 85.7013 337.216 85.7013 340.1C85.7013 342.984 87.7453 345.112 90.5033 345.112ZM90.5033 344.034C88.4453 344.034 86.9333 342.354 86.9333 340.1C86.9333 337.846 88.4453 336.166 90.5033 336.166C92.5613 336.166 94.0873 337.846 94.0873 340.1C94.0873 342.354 92.5613 344.034 90.5033 344.034ZM100.067 345L102.503 337.034L104.925 345H106.157L109.153 335.2H107.935L105.499 343.194L103.035 335.2H101.971L99.4933 343.194L97.0853 335.2H95.8393L98.8773 345H100.067ZM121.801 345L117.895 335.2H116.817L112.911 345H114.157L115.179 342.354H119.547L120.555 345H121.801ZM117.363 336.67L119.127 341.29H115.585L117.363 336.67ZM122.912 344.244C122.912 343.899 122.996 343.656 123.164 343.516C123.332 343.376 123.533 343.306 123.766 343.306C124.009 343.306 124.214 343.376 124.382 343.516C124.56 343.656 124.648 343.899 124.648 344.244C124.648 344.58 124.56 344.823 124.382 344.972C124.214 345.121 124.009 345.196 123.766 345.196C123.533 345.196 123.332 345.121 123.164 344.972C122.996 344.823 122.912 344.58 122.912 344.244ZM127.876 345V335.2H126.686V345H127.876ZM129.926 344.244C129.926 343.899 130.01 343.656 130.178 343.516C130.346 343.376 130.547 343.306 130.78 343.306C131.023 343.306 131.228 343.376 131.396 343.516C131.573 343.656 131.662 343.899 131.662 344.244C131.662 344.58 131.573 344.823 131.396 344.972C131.228 345.121 131.023 345.196 130.78 345.196C130.547 345.196 130.346 345.121 130.178 344.972C130.01 344.823 129.926 344.58 129.926 344.244ZM29.9255 369L26.0195 359.2H24.9415L21.0355 369H22.2815L23.3035 366.354H27.6715L28.6795 369H29.9255ZM25.4875 360.67L27.2515 365.29H23.7095L25.4875 360.67ZM35.0072 369.112C37.1772 369.112 38.9272 367.782 39.1372 365.948H37.9052C37.7652 367.152 36.5332 368.034 35.0072 368.034C32.9632 368.034 31.5212 366.648 31.5212 364.1C31.5212 361.552 32.9632 360.166 35.0072 360.166C36.5052 360.166 37.7232 361.048 37.8912 362.252H39.1512C38.8852 360.418 37.1352 359.088 35.0072 359.088C32.5712 359.088 30.2892 360.712 30.2892 364.1C30.2892 367.474 32.5572 369.112 35.0072 369.112ZM44.9193 369.112C47.0893 369.112 48.8393 367.782 49.0493 365.948H47.8173C47.6773 367.152 46.4453 368.034 44.9193 368.034C42.8753 368.034 41.4333 366.648 41.4333 364.1C41.4333 361.552 42.8753 360.166 44.9193 360.166C46.4173 360.166 47.6353 361.048 47.8033 362.252H49.0633C48.7973 360.418 47.0473 359.088 44.9193 359.088C42.4833 359.088 40.2013 360.712 40.2013 364.1C40.2013 367.474 42.4693 369.112 44.9193 369.112ZM56.8474 369V367.922H51.7514V364.478H55.7694V363.4H51.7514V360.278H56.6934V359.2H50.5614V369H56.8474ZM61.6691 369.112C63.7131 369.112 65.2531 368.104 65.2531 366.326C65.2531 362.644 59.4851 364.198 59.4851 361.692C59.4851 360.754 60.2691 360.166 61.5991 360.166C62.9151 360.166 63.7691 360.88 63.8811 361.986H65.0571C64.9171 360.222 63.5591 359.088 61.5991 359.088C59.6391 359.088 58.2811 360.138 58.2811 361.692C58.2811 365.192 64.0071 363.806 64.0071 366.326C64.0071 367.516 63.0271 368.034 61.6691 368.034C60.1431 368.034 59.2471 367.152 59.1211 365.794H57.9451C58.0711 367.796 59.4711 369.112 61.6691 369.112ZM69.9816 369.112C72.0256 369.112 73.5656 368.104 73.5656 366.326C73.5656 362.644 67.7976 364.198 67.7976 361.692C67.7976 360.754 68.5816 360.166 69.9116 360.166C71.2276 360.166 72.0816 360.88 72.1936 361.986H73.3696C73.2296 360.222 71.8716 359.088 69.9116 359.088C67.9516 359.088 66.5936 360.138 66.5936 361.692C66.5936 365.192 72.3196 363.806 72.3196 366.326C72.3196 367.516 71.3396 368.034 69.9816 368.034C68.4556 368.034 67.5596 367.152 67.4336 365.794H66.2576C66.3836 367.796 67.7836 369.112 69.9816 369.112ZM82.708 369.112C84.15 369.112 85.368 368.37 85.83 367.292V369H86.936V365.64C86.936 364.52 85.914 363.96 85.2 363.96H82.778V364.996H84.99C85.466 364.996 85.76 365.29 85.76 365.738C85.76 367.152 84.332 368.062 82.722 368.062C80.706 368.062 79.222 366.634 79.222 364.1C79.222 361.552 80.706 360.166 82.722 360.166C84.234 360.166 85.466 361.048 85.69 362.294H86.95C86.726 360.418 84.976 359.088 82.736 359.088C80.3 359.088 78.004 360.754 78.004 364.1C78.004 367.446 80.286 369.112 82.708 369.112ZM96.6306 369L92.7246 359.2H91.6466L87.7406 369H88.9866L90.0086 366.354H94.3766L95.3846 369H96.6306ZM92.1926 360.67L93.9566 365.29H90.4146L92.1926 360.67ZM103.833 369V367.922H98.933V359.2H97.743V369H103.833ZM111.161 369V367.922H106.261V359.2H105.071V369H111.161ZM118.685 369V367.922H113.589V364.478H117.607V363.4H113.589V360.278H118.531V359.2H112.399V369H118.685ZM125.621 364.352C126.545 363.918 127.161 363.148 127.161 362.07C127.161 360.362 125.971 359.2 124.039 359.2H120.329V369H121.519V365.01H124.179C125.103 365.01 125.719 365.682 125.775 366.634L125.943 369H127.091L126.923 366.564C126.853 365.57 126.391 364.772 125.621 364.352ZM124.039 360.264C125.411 360.264 125.929 361.104 125.929 362.07C125.929 363.036 125.411 363.932 124.039 363.932H121.519V360.264H124.039ZM132.46 369V364.898L135.932 359.2H134.574L131.872 363.75L129.156 359.2H127.798L131.27 364.898V369H132.46Z" fill="#1A1B1C"/>
<path fill-rule="evenodd" clip-rule="evenodd" d="M144.669 338.874C144.669 338.046 145.341 337.374 146.169 337.374C146.998 337.374 147.669 338.046 147.669 338.874C147.669 339.702 146.998 340.374 146.169 340.374C145.341 340.374 144.669 339.702 144.669 338.874ZM143.669 338.874C143.669 337.493 144.788 336.374 146.169 336.374C146.686 336.374 147.166 336.531 147.564 336.799L209.337 282L210.001 282.748L148.266 337.513C148.521 337.904 148.669 338.372 148.669 338.874C148.669 340.255 147.55 341.374 146.169 341.374C144.788 341.374 143.669 340.255 143.669 338.874Z" fill="#1A1B1C"/>
<path opacity="0.3" d="M247 1L488 242L247 483L6 242L247 1Z" stroke="#A0A4AB" stroke-width="2" stroke-linecap="round" stroke-linejoin="round" stroke-dasharray="0.1 8"/>
<path opacity="0.6" d="M247 19.8281L469.172 242L247 464.172L24.8281 242L247 19.8281Z" stroke="#A0A4AB" stroke-width="2" stroke-linecap="round" stroke-linejoin="round" stroke-dasharray="0.1 8"/>
<path d="M247 39.4092L449.59 242L247 444.59L44.4092 242L247 39.4092Z" stroke="#A0A4AB" stroke-width="2" stroke-linecap="round" stroke-linejoin="round" stroke-dasharray="0.1 8"/>
</svg>
