<svg width="218" height="218" viewBox="0 0 218 218" fill="none" xmlns="http://www.w3.org/2000/svg">
<rect x="108.807" width="153.876" height="153.875" transform="rotate(45 108.807 0)" fill="#F3F3F4"/>
<path d="M75.6951 103.138C78.4471 103.138 80.4951 101.554 80.7191 99.2338L78.6071 99.2338C78.4151 100.45 77.2311 101.298 75.6951 101.298C73.7431 101.298 72.2711 99.9538 72.2711 97.4098C72.2711 94.8658 73.7431 93.5058 75.6951 93.5058C77.1991 93.5058 78.3831 94.3538 78.5431 95.5858L80.7511 95.5858C80.4471 93.2658 78.3991 91.6818 75.6951 91.6818C72.7671 91.6818 70.1431 93.6018 70.1431 97.4098C70.1431 101.218 72.7191 103.138 75.6951 103.138ZM87.1121 103.138C90.3601 103.138 92.7601 100.706 92.7601 97.4097C92.7601 94.1137 90.3601 91.6817 87.1121 91.6817C83.8481 91.6818 81.4481 94.1138 81.4481 97.4098C81.4481 100.706 83.8481 103.138 87.1121 103.138ZM87.0961 101.298C85.0641 101.298 83.5761 99.6498 83.5761 97.4097C83.5761 95.1698 85.0641 93.5057 87.0961 93.5057C89.1441 93.5057 90.6321 95.1697 90.6321 97.4097C90.6321 99.6497 89.1441 101.298 87.0961 101.298ZM97.7729 103.138C100.237 103.138 101.949 101.874 101.949 99.7937C101.949 95.4257 95.8529 97.2817 95.8529 94.8017C95.8529 94.0177 96.5409 93.5057 97.6449 93.5057C98.8289 93.5057 99.5969 94.1617 99.6929 95.1377L101.709 95.1377C101.613 93.0417 100.013 91.6817 97.6449 91.6817C95.3729 91.6817 93.7889 92.9617 93.7889 94.8017C93.7889 99.0897 99.8049 97.4257 99.8049 99.8257C99.8049 100.818 98.9729 101.298 97.7729 101.298C96.4289 101.298 95.5969 100.498 95.4849 99.2497L93.4529 99.2497C93.5649 101.602 95.2289 103.138 97.7729 103.138ZM105.132 103.01L105.132 95.5857L108.188 103.01L109.788 103.01L112.828 95.5857L112.828 103.01L114.812 103.01L114.812 91.8097L112.38 91.8097L108.988 100.082L105.596 91.8097L103.148 91.8097L103.148 103.01L105.132 103.01ZM124.272 103.01L124.272 101.17L118.752 101.17L118.752 98.1777L123.04 98.1777L123.04 96.3537L118.752 96.3537L118.752 93.6337L124.096 93.6337L124.096 91.8097L116.64 91.8097L116.64 103.01L124.272 103.01ZM130.178 103.01L130.178 93.6337L133.554 93.6337L133.554 91.8097L124.674 91.8097L124.674 93.6337L128.066 93.6337L128.066 103.01L130.178 103.01ZM136.394 103.01L136.394 91.8097L134.266 91.8097L134.266 103.01L136.394 103.01ZM143.268 103.138C146.02 103.138 148.068 101.554 148.292 99.2337L146.18 99.2337C145.988 100.45 144.804 101.298 143.268 101.298C141.316 101.298 139.844 99.9537 139.844 97.4097C139.844 94.8657 141.316 93.5057 143.268 93.5057C144.772 93.5057 145.956 94.3537 146.116 95.5857L148.324 95.5857C148.02 93.2657 145.972 91.6817 143.268 91.6817C140.34 91.6817 137.716 93.6017 137.716 97.4097C137.716 101.218 140.292 103.138 143.268 103.138ZM72.3867 127.138C75.1387 127.138 77.1867 125.554 77.4107 123.234L75.2987 123.234C75.1067 124.45 73.9227 125.298 72.3867 125.298C70.4347 125.298 68.9627 123.954 68.9627 121.41C68.9627 118.866 70.4347 117.506 72.3867 117.506C73.8907 117.506 75.0747 118.354 75.2347 119.586L77.4427 119.586C77.1387 117.266 75.0907 115.682 72.3867 115.682C69.4587 115.682 66.8347 117.602 66.8347 121.41C66.8347 125.218 69.4107 127.138 72.3867 127.138ZM83.8037 127.138C87.0517 127.138 89.4517 124.706 89.4517 121.41C89.4517 118.114 87.0517 115.682 83.8037 115.682C80.5397 115.682 78.1397 118.114 78.1397 121.41C78.1397 124.706 80.5397 127.138 83.8037 127.138ZM83.7877 125.298C81.7557 125.298 80.2677 123.65 80.2677 121.41C80.2677 119.17 81.7557 117.506 83.7877 117.506C85.8357 117.506 87.3237 119.17 87.3237 121.41C87.3237 123.65 85.8357 125.298 83.7877 125.298ZM92.8964 127.01L92.8964 119.122L97.7604 127.01L100.032 127.01L100.032 115.81L97.9204 115.81L97.9204 123.714L93.0724 115.81L90.7844 115.81L90.7844 127.01L92.8964 127.01ZM106.911 127.138C109.663 127.138 111.711 125.554 111.935 123.234L109.823 123.234C109.631 124.45 108.447 125.298 106.911 125.298C104.959 125.298 103.487 123.954 103.487 121.41C103.487 118.866 104.959 117.506 106.911 117.506C108.415 117.506 109.599 118.354 109.759 119.586L111.967 119.586C111.663 117.266 109.615 115.682 106.911 115.682C103.983 115.682 101.359 117.602 101.359 121.41C101.359 125.218 103.935 127.138 106.911 127.138ZM120.776 127.01L120.776 125.17L115.256 125.17L115.256 122.178L119.544 122.178L119.544 120.354L115.256 120.354L115.256 117.634L120.6 117.634L120.6 115.81L113.144 115.81L113.144 127.01L120.776 127.01ZM130.25 124.018C130.17 122.994 129.674 122.162 128.906 121.682C129.834 121.202 130.41 120.418 130.41 119.266C130.41 117.234 129.034 115.81 126.698 115.81L122.106 115.81L122.106 127.01L124.234 127.01L124.234 122.802L126.65 122.802C127.482 122.802 128.074 123.41 128.154 124.258L128.426 127.01L130.522 127.01L130.25 124.018ZM126.602 117.586C127.85 117.586 128.362 118.37 128.362 119.266C128.362 120.162 127.85 120.978 126.602 120.978L124.234 120.978L124.234 117.586L126.602 117.586ZM134.491 127.01L134.491 119.122L139.355 127.01L141.627 127.01L141.627 115.81L139.515 115.81L139.515 123.714L134.667 115.81L132.379 115.81L132.379 127.01L134.491 127.01ZM147.13 127.138C149.594 127.138 151.306 125.874 151.306 123.794C151.306 119.426 145.21 121.282 145.21 118.802C145.21 118.018 145.898 117.506 147.002 117.506C148.186 117.506 148.954 118.162 149.05 119.138L151.066 119.138C150.97 117.042 149.37 115.682 147.002 115.682C144.73 115.682 143.146 116.962 143.146 118.802C143.146 123.09 149.162 121.426 149.162 123.826C149.162 124.818 148.33 125.298 147.13 125.298C145.786 125.298 144.954 124.498 144.842 123.25L142.81 123.25C142.922 125.602 144.586 127.138 147.13 127.138Z" fill="#1A1B1C"/>
</svg>
