<svg width="169" height="62" viewBox="0 0 169 62" fill="none" xmlns="http://www.w3.org/2000/svg">
<circle cx="138.001" cy="31" r="27.5556" fill="#FCFCFC"/>
<path fill-rule="evenodd" clip-rule="evenodd" d="M134.073 20.4013C133.598 20.5719 132.2 21.7484 131.674 22.4205C131.521 22.6159 131.265 22.6593 130.269 22.6593C127.405 22.6593 125.832 23.4755 124.912 25.4401L124.521 26.2747V32.2093C124.521 37.4902 124.547 38.2079 124.758 38.7253C125.336 40.1466 126.417 41.1454 127.823 41.5577C128.848 41.8579 147.151 41.8579 148.176 41.5577C149.172 41.2658 150.066 40.6275 150.621 39.8118C151.483 38.5465 151.478 38.5872 151.478 32.1411V26.2747L151.076 25.4164C150.59 24.3777 149.504 23.3395 148.545 22.9986C148.123 22.8482 147.285 22.738 146.225 22.6934L144.566 22.6237L143.555 21.6524C142.999 21.1182 142.377 20.589 142.172 20.4764C141.634 20.1794 134.865 20.1165 134.073 20.4013ZM141.398 21.845C141.604 21.9223 142.266 22.4596 142.869 23.0387L143.965 24.0918L145.786 24.1701C147.764 24.2551 148.336 24.4228 149.048 25.1255C149.911 25.9771 149.901 25.8831 149.858 32.3977L149.819 38.3254L149.398 38.9168C149.167 39.2421 148.7 39.6617 148.362 39.8493L147.746 40.1904H138H128.254L127.638 39.8493C127.299 39.6617 126.833 39.2421 126.601 38.9168L126.18 38.3254L126.142 32.3977C126.099 25.8585 126.085 25.9826 126.975 25.1232C127.72 24.4046 128.228 24.2554 130.221 24.1701L132.049 24.0918L133.055 23.1098C134.537 21.6617 134.382 21.7061 137.956 21.7051C139.73 21.7047 141.181 21.7636 141.398 21.845ZM136.355 25.868C133 26.7979 130.983 30.2039 131.847 33.4808C132.15 34.628 132.547 35.3075 133.464 36.2499C135.403 38.2424 138.386 38.7558 140.851 37.5211C141.839 37.0266 143.186 35.7328 143.651 34.8325C144.736 32.7348 144.517 30.0836 143.105 28.2201C142.417 27.3121 141.274 26.4497 140.248 26.0654C139.206 25.6749 137.385 25.5825 136.355 25.868ZM145.279 26.1831C145.011 26.4749 144.979 27.0365 145.216 27.2706C145.318 27.3711 145.816 27.4343 146.508 27.4343C147.423 27.4343 147.676 27.3876 147.862 27.1848C148.166 26.8532 148.151 26.5384 147.815 26.2064C147.426 25.8231 145.624 25.8066 145.279 26.1831ZM140.002 27.6205C140.966 28.0561 141.934 29.0178 142.397 29.9997C142.702 30.6481 142.763 30.9688 142.763 31.9364C142.763 33.356 142.369 34.3167 141.39 35.2822C140.428 36.232 139.447 36.6191 138 36.6191C136.553 36.6191 135.571 36.232 134.609 35.2822C133.631 34.3167 133.236 33.356 133.236 31.9364C133.236 30.9688 133.297 30.6481 133.603 29.9997C134.216 28.6976 135.489 27.6418 136.857 27.3013C137.698 27.0921 139.162 27.2407 140.002 27.6205Z" fill="#A0A4AB"/>
<circle cx="138" cy="31" r="30" stroke="#FCFCFC" stroke-width="2"/>
<path opacity="0.7" d="M4.942 37V28.796H7.896V27.2H0.126V28.796H3.094V37H4.942ZM15.8126 37L12.0326 27.2H10.2966L6.53056 37H8.43456L9.27456 34.718H13.0546L13.8946 37H15.8126ZM11.1786 29.566L12.4946 33.15H9.86256L11.1786 29.566ZM24.9398 37L20.9778 31.092L24.5758 27.2H22.2658L18.3318 31.47V27.2H16.4698V37H18.3318V33.948L19.7038 32.464L22.6438 37H24.9398ZM32.3698 37V35.39H27.5398V32.772H31.2917V31.176H27.5398V28.796H32.2158V27.2H25.6917V37H32.3698ZM38.1773 37V33.276H40.2493C42.2933 33.276 43.5113 32.016 43.5113 30.238C43.5113 28.46 42.2933 27.2 40.2493 27.2H36.3153V37H38.1773ZM38.1773 28.754H40.1653C41.2573 28.754 41.7053 29.454 41.7053 30.238C41.7053 31.022 41.2573 31.722 40.1653 31.722H38.1773V28.754ZM46.2919 37V27.2H44.4299V37H46.2919ZM52.3063 37.112C54.7143 37.112 56.5063 35.726 56.7023 33.696H54.8543C54.6863 34.76 53.6503 35.502 52.3063 35.502C50.5983 35.502 49.3103 34.326 49.3103 32.1C49.3103 29.874 50.5983 28.684 52.3063 28.684C53.6223 28.684 54.6583 29.426 54.7983 30.504H56.7303C56.4643 28.474 54.6723 27.088 52.3063 27.088C49.7443 27.088 47.4483 28.768 47.4483 32.1C47.4483 35.432 49.7023 37.112 52.3063 37.112ZM61.5731 37V28.796H64.5271V27.2H56.7571V28.796H59.7251V37H61.5731ZM68.9825 37.112C71.2785 37.112 72.8325 35.838 72.8325 33.458V27.2H71.0965V33.472C71.0965 34.816 70.2285 35.488 68.9825 35.488C67.7365 35.488 66.8825 34.816 66.8825 33.472V27.2H65.1325V33.458C65.1325 35.838 66.7005 37.112 68.9825 37.112ZM81.3753 34.382C81.3053 33.486 80.8713 32.758 80.1993 32.338C81.0113 31.918 81.5153 31.232 81.5153 30.224C81.5153 28.446 80.3113 27.2 78.2673 27.2H74.2493V37H76.1113V33.318H78.2253C78.9533 33.318 79.4713 33.85 79.5413 34.592L79.7793 37H81.6133L81.3753 34.382ZM78.1833 28.754C79.2753 28.754 79.7233 29.44 79.7233 30.224C79.7233 31.008 79.2753 31.722 78.1833 31.722H76.1113V28.754H78.1833ZM89.9169 37V35.39H85.0869V32.772H88.8389V31.176H85.0869V28.796H89.7629V27.2H83.2389V37H89.9169Z" fill="#FCFCFC"/>
</svg>
