<svg width="218" height="218" viewBox="0 0 218 218" fill="none" xmlns="http://www.w3.org/2000/svg">
<rect x="108.807" width="153.876" height="153.875" transform="rotate(45 108.807 0)" fill="#F3F3F4"/>
<path d="M77.8089 115.019L80.1929 107.099L82.5769 115.019L84.6569 115.019L88.0009 103.819L85.8729 103.819L83.5369 111.899L81.0889 103.819L79.2809 103.819L76.8489 111.899L74.5289 103.819L72.3849 103.819L75.7449 115.019L77.8089 115.019ZM96.6684 115.019L96.6684 113.179L91.1484 113.179L91.1484 110.187L95.4364 110.187L95.4364 108.363L91.1484 108.363L91.1484 105.643L96.4924 105.643L96.4924 103.819L89.0364 103.819L89.0364 115.019L96.6684 115.019ZM107.63 115.019L103.31 103.819L101.326 103.819L97.0217 115.019L99.1977 115.019L100.158 112.411L104.478 112.411L105.438 115.019L107.63 115.019ZM102.334 106.523L103.838 110.619L100.83 110.619L102.334 106.523ZM111.566 115.019L111.566 105.643L114.942 105.643L114.942 103.819L106.062 103.819L106.062 105.643L109.454 105.643L109.454 115.019L111.566 115.019ZM122.759 108.363L117.767 108.363L117.767 103.819L115.655 103.819L115.655 115.019L117.767 115.019L117.767 110.203L122.759 110.203L122.759 115.019L124.871 115.019L124.871 103.819L122.759 103.819L122.759 108.363ZM134.326 115.019L134.326 113.179L128.806 113.179L128.806 110.187L133.094 110.187L133.094 108.363L128.806 108.363L128.806 105.643L134.15 105.643L134.15 103.819L126.694 103.819L126.694 115.019L134.326 115.019ZM143.799 112.027C143.719 111.003 143.223 110.171 142.455 109.691C143.383 109.211 143.959 108.427 143.959 107.275C143.959 105.243 142.583 103.819 140.247 103.819L135.655 103.819L135.655 115.019L137.783 115.019L137.783 110.811L140.199 110.811C141.031 110.811 141.623 111.419 141.703 112.267L141.975 115.019L144.071 115.019L143.799 112.027ZM140.151 105.595C141.399 105.595 141.911 106.379 141.911 107.275C141.911 108.171 141.399 108.987 140.151 108.987L137.783 108.987L137.783 105.595L140.151 105.595Z" fill="#1A1B1C"/>
</svg>
